<svg xmlns="http://www.w3.org/2000/svg" version="1.1" viewBox="0 0 200 200" width="200" height="200">
    <!-- svg-source:excalidraw -->

    <defs>
        <style class="style-fonts">
            @font-face {
            font-family: "Virgil";
            src: url("https://excalidraw.com/Virgil.woff2");
            }
            @font-face {
            font-family: "Cascadia";
            src: url("https://excalidraw.com/Cascadia.woff2");
            }
        </style>
    </defs>
    <g stroke-linecap="round" transform="translate(10 10) rotate(-45 90 90)">
        <path d="M102.27 0.07         C113.2 0.18, 125.69 5.77, 135.55 11.56         C145.41 17.36, 154.47 25.42, 161.46 34.83         C168.45 44.24, 174.6 56.85, 177.51 68.03         C180.42 79.21, 180.6 90.65, 178.92 101.91         C177.25 113.16, 173.13 125.67, 167.46 135.56         C161.8 145.46, 153.95 154.48, 144.94 161.27         C135.93 168.07, 124.55 173.27, 113.41 176.32         C102.28 179.38, 89.49 181.16, 78.13 179.62         C66.77 178.08, 55.19 173.06, 45.26 167.08         C35.32 161.1, 25.58 152.83, 18.53 143.73         C11.48 134.63, 5.76 123.49, 2.96 112.45          M98.9 1.29         C110.07 1.24, 121.98 5.75, 132.29 10.9         C142.59 16.06, 153.64 23.48, 160.74 32.21         C167.83 40.93, 171.72 52.35, 174.87 63.25         C178.01 74.15, 180.56 85.94, 179.6 97.6         C178.63 109.26, 174.38 122.99, 169.09 133.24         C163.8 143.48, 156.53 151.96, 147.88 159.09         C139.23 166.21, 128.43 172.5, 117.2 176         C105.96 179.49, 92.14 181.36, 80.48 180.07         C68.81 178.78, 57.26 173.58, 47.21 168.26         C37.16 162.94, 27.17 156.87, 20.17 148.15         C13.17 139.43, 8.3 127.19, 5.21 115.93 " stroke="#ff0000" stroke-width="1" fill="none"/>
    </g>
</svg>