<svg xmlns="http://www.w3.org/2000/svg" version="1.1" viewBox="0 0 140 90" width="140" height="90">
    <g stroke-linecap="round" transform="translate(10 10) rotate(0 60 50)">
        <path d="         M 76.25 12.75 C 85.54 21.75 92.17 26.99 104.75 38.25         M 76.25 12.75 C 84.64 20.27 93.4 27.57 104.75 38.25         M 104.75 38.25 C 121.55 50.82 121.61 60.45 104.75 63.75         M 104.75 38.25 C 122.03 49.96 121.33 59.09 104.75 63.75         M 104.75 63.75 C 88.771 66.307 25.716 65.104 15.25 63.75         M 104.75 63.75 C 94.2 63.29 30.5 63.98 15.25 63.75         M 15.25 63.75 C 5.25 62.11 1.37 51.66 15.25 38.25         M 15.25 63.75 C 5.83 64.1 1.04 52.35 15.25 38.25         M 15.25 38.25 C 26.88 27.1 38.4 20.1 45.75 12.75         M 15.25 38.25 C 26.56 28.22 37.28 20.77 45.75 12.75         M 45.75 12.75 C 60.43 -1.79 60.74 0.64 76.25 12.75         M 45.75 12.75 C 60.19 1.02 60.39 -2.26 76.25 12.75" stroke="#ff0000" stroke-width="1" fill="none"/>
    </g>
</svg>