<svg xmlns="http://www.w3.org/2000/svg" xmlns:xlink="http://www.w3.org/1999/xlink" id="svg" version="1.1" width="400" height="393.08855291576674" viewBox="0, 0, 400,393.08855291576674"><g id="svgg"><path id="path0" d="M70.206 5.918 C 44.999 7.659,23.136 22.207,11.848 44.749 C -9.895 88.173,18.219 140.332,66.405 145.965 C 71.342 146.542,71.261 146.459,70.400 150.049 C 68.893 156.332,67.486 178.525,68.529 179.573 C 68.688 179.733,69.663 179.073,70.696 178.106 C 72.938 176.009,76.474 173.689,79.449 172.364 C 83.987 170.342,86.844 171.265,106.735 181.183 C 109.385 182.505,110.151 182.754,109.920 182.219 C 108.797 179.617,109.420 165.344,110.964 158.309 C 114.627 141.615,127.135 121.258,138.554 113.405 C 139.445 112.792,140.626 111.875,141.178 111.367 C 141.731 110.858,142.714 110.169,143.363 109.836 C 144.012 109.503,145.301 108.712,146.227 108.078 C 153.002 103.443,168.315 98.148,177.424 97.291 L 180.020 97.046 180.236 98.657 C 180.644 101.699,183.647 104.223,186.862 104.226 C 188.734 104.228,189.790 103.621,204.326 94.191 C 212.580 88.836,222.361 82.608,225.364 80.794 C 232.296 76.607,233.758 72.463,229.711 68.469 C 228.212 66.990,220.406 61.598,218.895 60.998 C 218.670 60.908,216.450 59.517,213.963 57.905 C 208.025 54.059,205.846 52.666,200.598 49.361 C 198.194 47.847,194.775 45.647,193.000 44.472 C 185.199 39.309,180.138 41.978,180.138 51.255 L 180.138 55.457 177.755 55.457 C 173.478 55.457,160.228 57.244,157.325 58.213 C 156.785 58.393,155.280 58.840,153.982 59.205 C 152.684 59.570,149.990 60.394,147.994 61.036 C 145.998 61.677,144.231 62.199,144.067 62.196 C 143.902 62.193,143.395 60.706,142.939 58.892 C 137.875 38.744,123.544 21.337,104.818 12.589 C 93.843 7.462,81.711 5.124,70.206 5.918 M64.307 68.945 C 67.449 70.720,67.623 75.303,64.625 77.317 C 63.523 78.057,63.430 78.251,63.865 78.903 C 64.138 79.312,64.926 80.664,65.616 81.908 L 66.870 84.169 64.408 84.165 L 61.947 84.161 60.400 81.215 C 58.471 77.540,58.210 77.540,58.210 81.219 L 58.210 84.169 56.047 84.169 L 53.884 84.169 53.884 76.106 L 53.884 68.043 58.309 68.050 C 62.170 68.055,62.934 68.169,64.307 68.945 M79.056 69.599 L 79.056 71.155 76.205 71.271 L 73.353 71.386 73.232 72.843 L 73.111 74.299 75.789 74.416 L 78.466 74.533 78.466 76.106 L 78.466 77.679 75.789 77.796 L 73.111 77.913 73.232 79.370 L 73.353 80.826 76.205 80.942 L 79.056 81.057 79.056 82.613 L 79.056 84.169 73.943 84.169 L 68.830 84.169 68.830 76.106 L 68.830 68.043 73.943 68.043 L 79.056 68.043 79.056 69.599 M91.878 68.985 C 97.853 71.767,97.898 80.372,91.953 83.421 C 90.767 84.029,89.643 84.169,85.955 84.169 L 81.416 84.169 81.416 76.106 L 81.416 68.043 85.644 68.047 C 89.264 68.050,90.161 68.185,91.878 68.985 M58.210 73.375 L 58.210 75.166 60.036 75.046 C 63.317 74.831,63.276 71.583,59.993 71.583 L 58.210 71.583 58.210 73.375 M86.005 71.845 C 85.860 71.990,85.742 74.025,85.742 76.368 L 85.742 80.629 87.482 80.629 C 90.895 80.629,92.859 77.462,91.486 74.175 C 90.700 72.295,87.090 70.760,86.005 71.845 " stroke="none" fill="#e43434" fill-rule="evenodd"/><path id="path1" d="M318.349 49.568 C 296.777 51.638,278.064 62.696,265.973 80.519 L 263.267 84.509 261.329 82.980 C 254.610 77.678,248.445 73.333,243.068 70.107 L 241.691 69.281 241.687 73.300 C 241.679 80.924,239.500 83.680,227.335 91.448 C 222.684 94.418,217.640 97.677,216.126 98.690 C 214.612 99.704,213.019 100.675,212.586 100.849 C 211.728 101.193,211.575 101.082,214.553 102.279 C 235.861 110.842,254.727 132.833,259.750 154.966 C 260.069 156.372,260.650 158.850,261.040 160.472 C 262.139 165.038,262.036 180.387,260.870 185.841 C 260.408 188.004,259.942 190.216,259.836 190.757 C 259.641 191.757,258.863 194.922,257.967 198.363 C 257.486 200.211,257.438 200.258,256.268 200.004 C 248.171 198.246,244.614 201.756,246.719 209.427 C 250.641 223.725,252.191 229.210,252.500 229.892 C 252.697 230.324,253.305 232.448,253.852 234.612 C 254.399 236.775,255.213 239.784,255.661 241.298 C 256.110 242.812,257.076 246.142,257.807 248.697 C 259.261 253.772,259.468 254.141,261.638 255.511 C 265.382 257.874,267.875 256.576,279.462 246.228 C 280.561 245.247,282.510 243.559,283.795 242.478 C 285.080 241.396,286.928 239.795,287.903 238.920 C 288.878 238.045,290.640 236.541,291.818 235.577 C 292.996 234.613,294.332 233.471,294.787 233.038 C 295.953 231.929,299.633 228.798,301.485 227.337 C 305.396 224.254,306.725 221.721,306.036 218.659 C 305.608 216.750,303.303 214.149,301.719 213.787 C 296.727 212.645,296.918 213.014,298.489 207.532 C 299.119 205.336,299.843 202.566,300.098 201.377 C 300.353 200.187,300.884 197.709,301.276 195.870 C 301.669 194.031,302.116 191.332,302.270 189.872 C 302.424 188.412,302.695 187.217,302.872 187.217 C 303.050 187.217,305.020 187.660,307.251 188.201 C 362.294 201.551,409.405 149.226,390.519 95.716 C 380.151 66.342,349.280 46.602,318.349 49.568 M300.283 112.598 C 301.877 113.501,303.767 115.833,303.518 116.591 C 303.214 117.515,299.865 117.292,298.320 116.244 C 294.979 113.977,291.225 116.761,292.006 120.926 C 292.583 124.000,296.608 125.486,298.795 123.432 C 300.155 122.154,299.936 121.927,297.345 121.927 L 294.985 121.927 294.985 120.354 L 294.985 118.781 299.508 118.781 L 304.031 118.781 304.031 120.590 C 304.031 130.238,289.153 130.710,287.713 121.107 C 286.687 114.266,294.222 109.166,300.283 112.598 M315.549 112.237 C 318.933 113.669,319.646 118.176,316.868 120.577 L 315.349 121.891 316.966 124.697 C 317.856 126.240,318.584 127.576,318.584 127.665 C 318.584 127.754,317.537 127.827,316.257 127.827 L 313.930 127.827 312.412 125.005 C 310.345 121.162,309.931 121.136,309.931 124.844 L 309.931 127.827 307.965 127.827 L 305.998 127.827 305.998 119.764 L 305.998 111.701 310.140 111.701 C 312.754 111.701,314.750 111.899,315.549 112.237 M331.096 113.373 L 331.218 114.848 328.244 114.848 L 325.270 114.848 325.270 116.421 L 325.270 117.994 327.850 117.994 L 330.429 117.994 330.308 119.666 L 330.187 121.337 327.729 121.454 L 325.270 121.571 325.270 123.109 L 325.270 124.646 328.122 124.762 L 330.973 124.877 331.096 126.352 L 331.218 127.827 326.081 127.827 L 320.944 127.827 320.944 119.752 L 320.944 111.678 325.959 111.788 L 330.973 111.898 331.096 113.373 M343.363 113.257 L 343.363 114.813 340.511 114.929 L 337.660 115.044 337.539 116.501 L 337.418 117.957 340.095 118.074 L 342.773 118.191 342.773 119.764 L 342.773 121.337 340.095 121.454 L 337.418 121.571 337.539 123.027 L 337.660 124.484 340.511 124.599 L 343.363 124.715 343.363 126.271 L 343.363 127.827 338.250 127.827 L 333.137 127.827 333.137 119.764 L 333.137 111.701 338.250 111.701 L 343.363 111.701 343.363 113.257 M353.037 116.323 L 356.146 120.944 356.257 116.302 L 356.367 111.661 358.420 111.779 L 360.472 111.898 360.578 119.862 L 360.685 127.827 358.356 127.827 L 356.027 127.827 353.136 123.402 L 350.246 118.977 350.135 123.402 L 350.023 127.827 347.873 127.827 L 345.723 127.827 345.723 119.764 L 345.723 111.701 347.825 111.701 L 349.928 111.701 353.037 116.323 M310.193 115.503 C 309.112 116.584,309.969 118.781,311.472 118.781 C 314.113 118.781,315.291 117.218,313.786 115.713 C 313.286 115.213,310.638 115.059,310.193 115.503 " stroke="none" fill="#34e434" fill-rule="evenodd"/><path id="path2" d="M80.238 182.410 C 78.878 182.947,78.243 183.514,77.485 184.868 L 76.500 186.627 76.384 202.554 C 76.316 212.000,76.116 218.634,75.892 218.857 C 75.093 219.656,75.433 234.881,76.290 236.655 C 78.142 240.489,82.602 241.683,86.218 239.314 L 87.677 238.358 89.529 241.008 C 97.426 252.304,103.991 259.424,112.792 266.234 L 114.473 267.534 112.005 270.158 C 68.770 316.134,99.639 390.167,162.045 390.167 C 213.179 390.167,247.859 335.973,225.943 290.315 C 223.283 284.775,223.263 285.044,226.408 284.012 C 234.958 281.205,250.247 273.030,254.671 268.900 C 255.103 268.496,256.209 267.643,257.129 267.004 C 259.198 265.566,259.297 265.878,256.081 263.740 C 250.171 259.810,249.887 259.147,242.720 232.534 C 240.933 225.899,241.098 226.140,239.327 227.575 C 238.555 228.200,237.179 229.298,236.268 230.015 C 235.357 230.732,233.941 231.860,233.121 232.523 C 228.401 236.338,217.083 242.817,211.603 244.843 C 209.980 245.443,208.476 246.066,208.260 246.228 C 207.290 246.954,199.048 248.829,192.845 249.735 C 172.535 252.699,147.357 242.813,130.135 225.111 C 122.682 217.450,122.423 216.766,126.184 214.643 C 132.616 211.014,132.075 204.509,125.074 201.295 C 123.668 200.649,120.039 198.917,117.011 197.446 C 113.982 195.975,109.027 193.581,105.998 192.126 C 102.970 190.672,97.040 187.799,92.822 185.743 C 84.470 181.672,83.055 181.297,80.238 182.410 M112.800 312.427 C 116.273 314.274,116.568 319.258,113.318 321.177 L 112.179 321.850 113.906 324.773 C 114.857 326.380,115.634 327.778,115.634 327.878 C 115.634 327.979,114.529 328.008,113.177 327.944 L 110.720 327.827 109.182 324.975 C 107.252 321.399,106.981 321.411,106.981 325.074 L 106.981 328.024 104.818 328.024 L 102.655 328.024 102.655 320.026 C 102.655 315.628,102.788 311.894,102.950 311.729 C 103.532 311.137,111.427 311.696,112.800 312.427 M127.750 313.355 L 127.870 315.009 124.997 315.125 L 122.124 315.241 122.124 316.618 L 122.124 317.994 124.800 318.111 L 127.477 318.228 127.357 319.881 L 127.237 321.534 124.582 321.650 L 121.927 321.767 121.927 323.125 L 121.927 324.484 124.877 324.484 L 127.827 324.484 127.827 326.254 L 127.827 328.024 122.714 328.024 L 117.601 328.024 117.601 320.026 C 117.601 315.628,117.724 311.906,117.874 311.755 C 118.025 311.605,120.282 311.531,122.889 311.591 L 127.630 311.701 127.750 313.355 M141.124 313.373 L 141.245 315.044 137.879 315.044 L 134.513 315.044 134.513 316.599 L 134.513 318.153 136.971 318.270 L 139.430 318.387 139.430 319.961 L 139.430 321.534 136.971 321.651 L 134.513 321.768 134.513 324.896 L 134.513 328.024 132.350 328.024 L 130.187 328.024 130.187 320.026 C 130.187 315.628,130.310 311.906,130.460 311.756 C 130.610 311.606,133.044 311.532,135.868 311.592 L 141.003 311.701 141.124 313.373 M153.257 314.061 C 158.900 329.143,158.683 328.024,155.954 328.024 C 153.854 328.024,153.781 327.986,153.213 326.629 L 152.631 325.234 149.963 325.350 C 147.374 325.464,147.279 325.505,146.733 326.745 C 146.192 327.975,146.084 328.024,143.899 328.024 L 141.627 328.024 143.025 324.189 C 143.793 322.080,145.041 318.584,145.798 316.421 C 147.548 311.420,147.526 311.443,150.193 311.585 L 152.374 311.701 153.257 314.061 M170.607 312.113 C 172.822 313.039,175.025 315.471,175.025 316.991 C 175.025 317.911,170.799 317.460,169.678 316.421 C 166.089 313.095,161.322 319.098,164.422 323.040 C 165.760 324.740,170.305 324.633,170.305 322.900 C 170.305 322.690,171.367 322.517,172.665 322.517 C 175.202 322.517,175.362 322.691,174.449 324.456 C 172.192 328.820,165.169 329.595,161.462 325.888 C 155.021 319.447,162.217 308.608,170.607 312.113 M189.107 313.351 L 189.227 315.002 187.141 315.121 L 185.054 315.241 184.946 321.632 L 184.838 328.024 182.684 328.024 L 180.531 328.024 180.531 321.534 L 180.531 315.044 178.368 315.044 L 176.205 315.044 176.205 313.746 C 176.205 311.583,176.554 311.474,183.078 311.593 L 188.987 311.701 189.107 313.351 M202.562 312.405 C 210.516 316.611,207.617 328.240,198.623 328.204 C 189.482 328.168,186.947 316.066,195.280 312.243 C 197.495 311.227,200.460 311.293,202.562 312.405 M217.200 311.756 C 221.832 312.521,223.391 318.262,219.743 321.117 L 218.550 322.051 220.189 324.811 C 222.240 328.263,222.285 328.083,219.398 327.944 L 216.967 327.827 215.482 325.079 C 213.501 321.416,213.176 321.410,213.176 325.041 L 213.176 328.024 211.013 328.024 L 208.850 328.024 208.850 320.026 C 208.850 315.628,208.968 311.911,209.112 311.767 C 209.440 311.438,215.231 311.430,217.200 311.756 M106.981 317.207 L 106.981 318.977 108.761 318.977 C 110.309 318.977,110.590 318.846,110.924 317.968 C 111.558 316.300,110.813 315.438,108.737 315.438 L 106.981 315.438 106.981 317.207 M196.408 316.135 C 192.771 319.081,195.127 325.153,199.583 324.317 C 204.172 323.457,203.419 315.419,198.752 315.446 C 197.924 315.451,196.870 315.761,196.408 316.135 M213.457 315.681 C 213.302 315.836,213.176 316.640,213.176 317.470 L 213.176 318.977 214.954 318.977 C 216.965 318.977,218.096 317.651,217.244 316.292 C 216.821 315.615,213.981 315.157,213.457 315.681 M149.692 317.797 C 148.119 322.026,148.129 322.124,150.146 322.124 C 151.447 322.124,151.480 322.086,151.216 320.883 C 150.753 318.778,149.940 317.131,149.692 317.797 " stroke="none" fill="#3434e4" fill-rule="evenodd"/><path id="path3" d="M0.000 196.657 L 0.000 393.314 200.000 393.314 L 400.000 393.314 400.000 196.657 L 400.000 0.000 200.000 0.000 L 0.000 0.000 0.000 196.657 M83.972 6.094 C 113.080 10.409,136.084 30.874,143.216 58.800 C 143.658 60.531,144.065 61.993,144.120 62.049 C 144.176 62.104,146.511 61.354,149.310 60.381 C 152.109 59.408,155.279 58.426,156.354 58.199 C 163.365 56.716,170.039 55.737,174.631 55.516 L 179.941 55.261 180.138 50.470 C 180.469 42.392,185.125 39.160,190.985 42.940 C 201.767 49.895,207.903 53.791,208.850 54.281 C 209.390 54.561,210.275 55.127,210.816 55.538 C 211.357 55.949,214.012 57.681,216.716 59.387 C 219.420 61.093,223.122 63.429,224.943 64.578 C 231.145 68.491,232.419 70.263,231.834 74.166 C 231.405 77.027,229.730 78.415,217.653 85.921 C 215.897 87.013,213.419 88.595,212.147 89.437 C 210.874 90.280,208.594 91.755,207.080 92.717 C 201.913 95.997,199.185 97.738,194.336 100.849 C 186.450 105.908,181.574 105.229,180.216 98.883 C 179.904 97.429,179.813 97.351,178.537 97.445 C 173.569 97.814,163.446 100.339,157.827 102.611 C 151.936 104.993,144.970 108.715,141.949 111.094 C 141.388 111.536,140.246 112.429,139.410 113.078 C 125.444 123.926,115.670 139.722,111.302 158.505 C 109.582 165.905,109.034 172.865,109.693 178.940 C 109.915 180.986,110.032 182.724,109.953 182.804 C 109.825 182.931,106.714 181.466,93.802 175.195 C 83.809 170.342,79.861 170.778,71.527 177.657 C 69.874 179.021,68.431 180.138,68.319 180.138 C 67.351 180.138,68.134 158.619,69.206 155.752 C 69.408 155.211,69.753 153.618,69.972 152.212 C 70.191 150.806,70.489 148.992,70.635 148.181 C 70.894 146.733,70.876 146.706,69.664 146.706 C 50.367 146.706,26.081 131.913,14.611 113.172 C -16.209 62.819,26.093 -2.486,83.972 6.094 M333.198 49.737 C 377.567 55.644,405.174 99.609,391.303 142.270 C 379.980 177.091,342.446 197.509,306.790 188.244 C 302.431 187.111,302.697 186.915,302.098 191.690 C 301.583 195.793,300.561 201.200,300.082 202.360 C 299.619 203.479,297.300 212.086,297.432 212.193 C 297.492 212.243,298.859 212.751,300.470 213.323 C 304.724 214.834,306.391 216.781,306.391 220.236 C 306.391 222.736,305.647 223.732,300.214 228.496 C 291.160 236.436,290.490 237.017,287.906 239.159 C 286.500 240.324,284.818 241.746,284.169 242.318 C 283.520 242.891,282.016 244.191,280.826 245.209 C 279.636 246.227,277.696 247.887,276.514 248.898 C 275.331 249.910,273.650 251.375,272.777 252.155 C 268.765 255.737,267.527 256.441,265.240 256.441 C 259.951 256.441,258.516 253.982,254.808 238.564 C 254.603 237.710,254.011 235.674,253.494 234.041 C 252.977 232.408,251.908 228.682,251.118 225.762 C 250.328 222.842,249.357 219.479,248.961 218.289 C 247.235 213.106,245.775 206.355,246.032 204.750 C 246.809 199.915,251.158 197.952,256.527 200.012 C 256.959 200.178,257.282 199.650,257.789 197.954 C 258.163 196.700,258.620 195.231,258.803 194.690 C 265.337 175.384,260.910 148.100,248.341 130.220 C 245.171 125.709,244.480 124.914,238.741 119.162 C 233.323 113.731,232.175 112.691,230.217 111.444 C 229.606 111.055,228.994 110.580,228.859 110.389 C 228.723 110.198,227.976 109.663,227.198 109.200 C 226.420 108.737,224.495 107.570,222.921 106.607 C 221.347 105.644,218.292 104.105,216.132 103.185 C 212.635 101.697,211.114 100.688,212.366 100.688 C 212.605 100.688,214.080 99.832,215.643 98.786 C 217.207 97.740,220.256 95.765,222.419 94.399 C 234.383 86.839,235.856 85.814,237.639 83.811 C 240.512 80.582,241.667 77.520,241.680 73.097 L 241.691 69.301 243.658 70.352 C 247.467 72.387,257.513 79.463,261.554 82.958 C 263.308 84.475,263.261 84.483,264.450 82.455 C 277.651 59.929,306.527 46.187,333.198 49.737 M54.572 68.260 C 54.410 68.429,54.277 72.078,54.277 76.368 L 54.277 84.169 56.047 84.169 L 57.817 84.169 57.817 81.219 C 57.817 77.167,58.626 77.168,60.707 81.221 L 62.221 84.169 64.345 84.169 C 66.895 84.169,66.865 84.437,64.710 80.934 C 63.166 78.425,63.028 78.024,63.586 77.679 C 67.231 75.429,67.541 71.057,64.196 69.103 C 62.831 68.306,55.172 67.635,54.572 68.260 M69.485 68.305 C 69.341 68.450,69.223 72.078,69.223 76.368 L 69.223 84.169 74.140 84.169 L 79.056 84.169 79.056 82.800 C 79.056 81.246,78.746 81.099,75.123 80.928 L 72.960 80.826 72.960 79.253 L 72.960 77.679 75.615 77.563 L 78.269 77.447 78.269 76.088 L 78.269 74.730 76.008 74.724 C 73.155 74.716,72.671 74.411,72.832 72.722 L 72.960 71.386 76.008 71.272 L 79.056 71.157 79.056 69.839 C 79.056 69.000,78.830 68.434,78.434 68.282 C 77.588 67.957,69.813 67.978,69.485 68.305 M82.104 68.263 C 81.942 68.430,81.809 72.078,81.809 76.368 L 81.809 84.169 85.755 84.169 C 94.458 84.169,98.854 77.953,94.646 71.594 C 92.936 69.010,83.743 66.568,82.104 68.263 M61.776 71.597 C 62.854 72.174,62.826 74.547,61.734 75.132 C 59.203 76.486,56.938 74.442,57.975 71.738 C 58.224 71.089,60.658 70.998,61.776 71.597 M90.091 71.988 C 93.964 74.061,92.116 80.765,87.660 80.806 L 85.546 80.826 85.435 76.205 L 85.324 71.583 87.329 71.583 C 88.432 71.583,89.674 71.765,90.091 71.988 M291.975 112.690 C 288.221 114.561,286.736 119.657,288.740 123.796 C 292.008 130.546,303.638 128.480,303.638 121.149 L 303.638 118.781 299.508 118.781 L 295.379 118.781 295.379 120.157 L 295.379 121.534 297.519 121.534 C 300.176 121.534,300.492 121.987,298.926 123.554 C 295.448 127.032,289.958 122.013,292.278 117.477 C 293.422 115.239,296.868 114.414,298.328 116.028 C 299.218 117.010,303.245 117.196,303.245 116.254 C 303.245 112.824,296.186 110.592,291.975 112.690 M306.293 111.921 C 306.131 112.089,305.998 115.736,305.998 120.026 L 305.998 127.827 307.965 127.827 L 309.931 127.827 309.931 124.877 C 309.931 121.080,310.439 121.061,312.498 124.779 L 314.077 127.630 316.315 127.748 L 318.554 127.865 316.824 124.829 L 315.094 121.794 316.741 120.332 C 319.298 118.062,318.941 114.099,316.041 112.583 C 314.753 111.910,306.826 111.372,306.293 111.921 M321.206 111.963 C 321.062 112.108,320.944 115.736,320.944 120.026 L 320.944 127.827 325.860 127.827 L 330.777 127.827 330.777 126.254 L 330.777 124.680 327.804 124.680 L 324.832 124.680 324.953 123.009 L 325.074 121.337 327.630 121.141 L 330.187 120.944 330.187 119.567 L 330.187 118.191 327.509 118.074 L 324.832 117.957 324.953 116.501 L 325.074 115.044 327.925 114.929 L 330.777 114.813 330.777 113.257 L 330.777 111.701 326.123 111.701 C 323.563 111.701,321.350 111.819,321.206 111.963 M333.530 119.752 L 333.530 127.827 338.470 127.827 L 343.410 127.827 343.288 126.352 L 343.166 124.877 340.315 124.762 L 337.463 124.646 337.463 122.893 L 337.463 121.141 340.020 121.141 L 342.576 121.141 342.576 119.567 L 342.576 117.994 340.020 117.994 L 337.463 117.994 337.463 116.421 L 337.463 114.848 340.437 114.848 L 343.410 114.848 343.288 113.373 L 343.166 111.898 338.348 111.787 L 333.530 111.677 333.530 119.752 M346.116 119.742 L 346.116 127.827 347.886 127.827 L 349.656 127.827 349.656 123.304 C 349.656 120.816,349.806 118.781,349.988 118.781 C 350.171 118.781,351.677 120.816,353.334 123.304 L 356.346 127.827 358.311 127.827 L 360.275 127.827 360.275 119.742 L 360.275 111.658 358.407 111.778 L 356.539 111.898 356.428 116.812 L 356.316 121.727 353.084 116.812 L 349.853 111.898 347.984 111.778 L 346.116 111.658 346.116 119.742 M313.864 115.634 C 315.463 117.233,314.095 119.307,311.580 119.098 C 310.102 118.975,309.392 117.213,310.089 115.396 C 310.414 114.549,312.939 114.709,313.864 115.634 M86.078 182.272 C 89.149 183.876,100.394 189.230,102.065 189.884 C 102.930 190.223,104.060 190.823,104.576 191.219 C 105.092 191.614,105.684 191.937,105.892 191.937 C 106.232 191.937,111.988 194.688,124.532 200.847 C 132.546 204.782,133.361 210.265,126.574 214.588 C 124.992 215.596,123.629 216.481,123.547 216.555 C 122.127 217.821,138.775 233.372,146.224 237.737 C 147.546 238.512,148.859 239.366,149.142 239.634 C 149.739 240.200,159.409 244.827,160.865 245.243 C 161.406 245.398,162.026 245.659,162.242 245.824 C 162.458 245.989,163.255 246.250,164.012 246.404 C 165.631 246.735,168.988 247.718,170.108 248.189 C 174.157 249.892,189.442 250.386,196.460 249.040 C 208.546 246.723,220.265 241.503,231.465 233.449 C 234.369 231.361,234.438 231.306,238.151 228.161 C 239.449 227.062,240.617 226.161,240.747 226.159 C 241.048 226.154,242.281 229.954,242.281 230.888 C 242.281 231.277,242.428 231.655,242.608 231.727 C 242.902 231.845,244.208 236.417,245.623 242.281 C 245.910 243.471,246.437 245.329,246.795 246.411 C 247.152 247.493,247.939 250.153,248.544 252.323 C 250.209 258.290,252.579 261.767,256.234 263.603 C 259.016 265.001,259.403 265.513,258.330 266.380 C 253.716 270.107,245.547 275.713,244.730 275.713 C 244.607 275.713,244.227 275.953,243.885 276.246 C 242.519 277.418,233.664 281.610,228.909 283.335 C 226.853 284.081,224.879 284.807,224.521 284.949 C 223.957 285.174,224.120 285.739,225.755 289.212 C 251.384 343.657,202.961 402.599,144.453 388.175 C 92.137 375.278,74.013 310.554,111.454 270.333 L 114.082 267.510 112.597 266.407 C 108.068 263.044,102.372 257.563,97.330 251.714 C 93.781 247.599,93.242 246.881,89.803 241.691 C 88.799 240.177,87.940 238.887,87.894 238.824 C 87.847 238.762,86.964 239.160,85.930 239.709 C 82.075 241.759,77.581 240.440,76.066 236.814 C 75.398 235.216,75.680 189.427,76.374 186.662 C 77.433 182.446,82.243 180.270,86.078 182.272 M103.048 319.961 L 103.048 328.024 104.802 328.024 L 106.555 328.024 106.670 324.975 C 106.819 321.006,107.384 321.005,109.493 324.968 L 111.111 328.008 113.176 328.016 C 115.665 328.025,115.649 328.205,113.482 324.636 L 111.723 321.739 112.885 321.138 C 115.312 319.884,116.044 316.059,114.263 313.943 C 113.027 312.473,110.817 311.898,106.414 311.898 L 103.048 311.898 103.048 319.961 M117.994 319.949 L 117.994 328.024 122.934 328.024 L 127.874 328.024 127.752 326.549 L 127.630 325.074 124.779 324.958 L 121.927 324.843 121.927 323.109 L 121.927 321.375 124.385 321.258 L 126.844 321.141 126.844 319.764 L 126.844 318.387 124.385 318.270 L 121.927 318.153 121.927 316.599 L 121.927 315.044 124.901 315.044 L 127.874 315.044 127.752 313.569 L 127.630 312.094 122.812 311.984 L 117.994 311.874 117.994 319.949 M130.580 319.961 L 130.580 328.024 132.334 328.024 L 134.088 328.024 134.202 324.779 L 134.317 321.534 136.775 321.417 L 139.233 321.300 139.233 319.942 L 139.233 318.584 136.676 318.584 L 134.120 318.584 134.120 316.814 L 134.120 315.044 137.463 315.044 L 140.806 315.044 140.806 313.471 L 140.806 311.898 135.693 311.898 L 130.580 311.898 130.580 319.961 M147.443 312.979 C 146.726 314.809,145.932 316.990,143.933 322.616 L 142.012 328.024 143.935 328.024 C 145.788 328.024,145.875 327.973,146.318 326.632 L 146.777 325.240 149.973 325.353 L 153.168 325.467 153.534 326.745 C 153.888 327.982,153.967 328.024,156.000 328.024 L 158.101 328.024 157.369 326.155 C 156.967 325.128,155.985 322.429,155.187 320.157 C 154.389 317.886,153.373 315.098,152.929 313.963 L 152.121 311.898 149.994 311.898 C 148.038 311.898,147.832 311.985,147.443 312.979 M163.799 312.637 C 160.661 314.062,158.989 317.324,159.439 321.138 C 160.327 328.655,170.848 330.736,174.250 324.068 L 175.041 322.517 172.968 322.524 C 171.302 322.529,170.721 322.714,170.010 323.465 C 168.739 324.805,167.357 325.040,165.652 324.205 C 160.920 321.886,163.440 314.081,168.472 315.470 C 169.287 315.696,170.053 316.134,170.172 316.445 C 170.411 317.067,174.631 317.285,174.631 316.676 C 174.631 313.348,167.822 310.810,163.799 312.637 M176.870 312.150 C 176.720 312.300,176.598 313.012,176.598 313.733 L 176.598 315.044 178.761 315.044 L 180.924 315.044 180.924 321.534 L 180.924 328.024 182.891 328.024 L 184.857 328.024 184.857 321.534 L 184.857 315.044 187.044 315.044 L 189.231 315.044 189.109 313.569 L 188.987 312.094 183.065 311.986 C 179.807 311.927,177.020 312.000,176.870 312.150 M195.514 312.406 C 190.531 313.997,188.946 321.252,192.678 325.388 C 197.659 330.908,206.906 327.396,206.874 319.997 C 206.849 314.071,201.498 310.495,195.514 312.406 M209.505 312.160 C 209.361 312.304,209.243 315.932,209.243 320.223 L 209.243 328.024 211.209 328.024 L 213.176 328.024 213.176 324.877 C 213.176 323.147,213.338 321.731,213.535 321.731 C 213.732 321.731,214.710 323.147,215.709 324.877 L 217.524 328.024 219.480 328.024 C 221.828 328.024,221.806 328.205,219.862 324.877 C 218.064 321.799,217.997 321.483,219.065 321.144 C 222.962 319.907,221.938 313.258,217.699 312.280 C 215.879 311.860,209.893 311.772,209.505 312.160 M110.501 315.427 C 113.171 316.856,110.459 320.153,107.409 319.185 C 106.590 318.925,106.167 315.990,106.850 315.306 C 107.245 314.911,109.688 314.992,110.501 315.427 M201.868 316.610 C 203.838 318.795,203.114 322.982,200.536 324.315 C 196.922 326.184,193.274 322.224,194.730 318.013 C 195.796 314.928,199.666 314.167,201.868 316.610 M217.156 315.790 C 218.515 316.890,217.838 318.644,215.866 319.134 C 213.651 319.685,213.176 319.312,213.176 317.023 L 213.176 315.044 214.706 315.044 C 215.621 315.044,216.605 315.344,217.156 315.790 M150.996 319.054 C 152.073 322.241,152.116 322.124,149.874 322.124 L 147.928 322.124 148.698 319.862 C 149.775 316.698,149.807 316.618,150.001 316.618 C 150.096 316.618,150.544 317.714,150.996 319.054 " stroke="none" fill="#fbfbfb" fill-rule="evenodd"/><path id="path4" d="M69.715 5.793 C 70.526 5.878,71.853 5.878,72.665 5.793 C 73.476 5.708,72.812 5.639,71.190 5.639 C 69.567 5.639,68.904 5.708,69.715 5.793 M76.794 5.793 C 77.606 5.878,78.933 5.878,79.744 5.793 C 80.556 5.708,79.892 5.639,78.269 5.639 C 76.647 5.639,75.983 5.708,76.794 5.793 M63.029 6.564 C 63.407 6.663,64.027 6.663,64.405 6.564 C 64.784 6.465,64.474 6.384,63.717 6.384 C 62.960 6.384,62.650 6.465,63.029 6.564 M59.587 7.098 C 59.039 7.346,59.277 7.382,60.374 7.215 C 61.239 7.083,62.021 6.910,62.111 6.831 C 62.449 6.533,60.342 6.756,59.587 7.098 M87.906 7.080 C 89.569 7.503,90.997 7.503,89.676 7.080 C 89.135 6.906,88.250 6.768,87.709 6.772 C 86.826 6.779,86.846 6.810,87.906 7.080 M102.655 11.603 C 103.628 12.124,104.602 12.550,104.818 12.550 C 105.034 12.550,104.415 12.124,103.441 11.603 C 102.468 11.081,101.495 10.655,101.278 10.655 C 101.062 10.655,101.681 11.081,102.655 11.603 M38.443 15.486 C 36.554 16.648,36.026 17.196,37.561 16.403 C 38.794 15.765,40.457 14.578,40.118 14.577 C 40.010 14.577,39.256 14.986,38.443 15.486 M33.417 18.907 L 32.055 20.116 33.530 19.057 C 34.833 18.122,35.257 17.699,34.892 17.699 C 34.829 17.699,34.166 18.243,33.417 18.907 M114.943 18.322 C 115.071 18.529,116.018 19.304,117.047 20.043 C 118.076 20.782,118.814 21.217,118.685 21.009 C 118.557 20.802,117.610 20.027,116.581 19.288 C 115.552 18.549,114.815 18.114,114.943 18.322 M26.265 24.877 C 23.576 27.498,23.472 27.635,25.725 25.591 C 29.977 21.735,30.083 21.632,29.831 21.632 C 29.702 21.632,28.097 23.092,26.265 24.877 M123.894 25.762 C 125.287 27.168,126.516 28.319,126.624 28.319 C 126.732 28.319,125.681 27.168,124.287 25.762 C 122.894 24.356,121.665 23.206,121.557 23.206 C 121.448 23.206,122.500 24.356,123.894 25.762 M21.199 30.187 C 19.881 31.596,18.272 33.663,19.132 32.842 C 20.070 31.947,22.900 28.712,22.745 28.712 C 22.654 28.712,21.958 29.376,21.199 30.187 M128.807 31.170 C 129.865 32.414,130.800 33.432,130.885 33.432 C 131.153 33.432,128.741 30.517,127.792 29.695 C 127.292 29.263,127.749 29.926,128.807 31.170 M134.114 38.446 C 134.803 39.582,135.455 40.511,135.562 40.511 C 135.828 40.511,134.137 37.705,133.430 36.971 C 133.117 36.647,133.425 37.311,134.114 38.446 M184.661 41.890 C 185.531 42.194,189.943 42.310,189.482 42.018 C 189.210 41.845,187.925 41.715,186.627 41.728 C 185.329 41.742,184.444 41.815,184.661 41.890 M137.304 43.854 C 137.304 44.071,137.818 45.221,138.446 46.411 C 139.075 47.601,139.589 48.397,139.589 48.181 C 139.589 47.965,139.075 46.814,138.446 45.624 C 137.818 44.435,137.304 43.638,137.304 43.854 M10.797 46.054 C 10.451 46.723,10.238 47.341,10.323 47.426 C 10.409 47.511,10.773 46.964,11.133 46.209 C 11.941 44.513,11.661 44.383,10.797 46.054 M194.494 45.435 C 194.926 45.787,195.634 46.249,196.067 46.462 L 196.853 46.848 196.067 46.207 C 195.634 45.855,194.926 45.393,194.494 45.181 L 193.707 44.794 194.494 45.435 M319.272 49.442 C 319.759 49.536,320.556 49.536,321.042 49.442 C 321.529 49.348,321.131 49.271,320.157 49.271 C 319.184 49.271,318.786 49.348,319.272 49.442 M327.532 49.442 C 328.019 49.536,328.815 49.536,329.302 49.442 C 329.789 49.348,329.390 49.271,328.417 49.271 C 327.443 49.271,327.045 49.348,327.532 49.442 M208.063 54.032 C 208.063 54.124,208.693 54.571,209.463 55.026 C 210.233 55.480,210.753 55.673,210.618 55.455 C 210.355 55.029,208.063 53.752,208.063 54.032 M169.518 55.871 C 168.632 56.071,169.122 56.105,170.895 55.968 C 172.409 55.850,173.722 55.687,173.812 55.605 C 174.093 55.351,170.965 55.545,169.518 55.871 M6.518 57.649 C 6.373 58.225,6.331 58.772,6.423 58.865 C 6.516 58.958,6.710 58.562,6.855 57.986 C 7.000 57.409,7.042 56.862,6.949 56.769 C 6.857 56.676,6.662 57.072,6.518 57.649 M153.392 59.030 C 150.998 59.879,152.091 59.777,155.162 58.865 C 156.244 58.544,156.775 58.277,156.342 58.272 C 155.910 58.267,154.582 58.608,153.392 59.030 M222.616 63.308 C 223.156 63.762,223.953 64.316,224.385 64.541 C 224.922 64.820,224.860 64.688,224.189 64.125 C 223.648 63.672,222.852 63.117,222.419 62.893 C 221.882 62.614,221.945 62.746,222.616 63.308 M225.540 65.249 C 225.686 65.485,226.171 65.875,226.618 66.114 C 227.200 66.425,227.355 66.426,227.164 66.118 C 227.018 65.881,226.533 65.492,226.086 65.253 C 225.504 64.942,225.349 64.940,225.540 65.249 M276.678 67.748 L 275.123 69.420 276.794 67.865 C 278.349 66.419,278.647 66.077,278.349 66.077 C 278.285 66.077,277.533 66.829,276.678 67.748 M229.694 68.241 C 230.451 69.106,231.224 69.990,231.414 70.206 C 231.603 70.423,231.575 70.246,231.350 69.813 C 231.126 69.381,230.352 68.496,229.631 67.847 L 228.319 66.668 229.694 68.241 M53.962 76.205 C 54.041 84.417,54.183 83.460,54.372 73.451 C 54.428 70.476,54.341 68.042,54.179 68.043 C 54.017 68.043,53.919 71.716,53.962 76.205 M68.908 76.205 C 68.987 84.417,69.129 83.460,69.318 73.451 C 69.374 70.476,69.287 68.042,69.125 68.043 C 68.963 68.043,68.865 71.716,68.908 76.205 M81.494 76.205 C 81.573 84.417,81.715 83.460,81.904 73.451 C 81.960 70.476,81.873 68.042,81.711 68.043 C 81.549 68.043,81.451 71.716,81.494 76.205 M4.434 70.403 C 4.434 71.377,4.510 71.775,4.604 71.288 C 4.698 70.801,4.698 70.005,4.604 69.518 C 4.510 69.031,4.434 69.430,4.434 70.403 M94.253 70.993 C 94.854 71.858,95.398 72.640,95.461 72.730 C 95.524 72.820,95.575 72.725,95.575 72.519 C 95.575 72.312,95.031 71.531,94.367 70.782 L 93.159 69.420 94.253 70.993 M57.975 71.738 C 57.240 73.655,57.981 75.319,59.587 75.353 L 61.160 75.387 59.685 75.232 C 58.229 75.080,58.210 75.056,58.210 73.353 L 58.210 71.628 59.882 71.478 L 61.554 71.327 59.870 71.258 C 58.742 71.212,58.116 71.371,57.975 71.738 M72.918 71.747 C 72.801 72.053,72.768 72.805,72.846 73.418 C 72.961 74.328,73.023 74.225,73.181 72.861 C 73.379 71.142,73.292 70.771,72.918 71.747 M85.435 76.205 L 85.546 80.826 87.220 80.865 L 88.895 80.903 87.295 80.742 L 85.696 80.582 85.817 76.082 C 85.884 73.607,85.801 71.582,85.632 71.582 C 85.462 71.583,85.374 73.663,85.435 76.205 M89.261 72.017 C 89.790 72.229,90.418 72.527,90.656 72.681 C 90.894 72.834,90.752 72.650,90.339 72.271 C 89.926 71.893,89.298 71.594,88.944 71.608 C 88.536 71.624,88.653 71.774,89.261 72.017 M66.561 73.156 C 66.561 73.913,66.642 74.223,66.741 73.845 C 66.840 73.466,66.840 72.847,66.741 72.468 C 66.642 72.089,66.561 72.399,66.561 73.156 M75.811 74.617 L 78.269 74.767 78.269 76.107 L 78.269 77.447 75.615 77.563 L 72.960 77.679 72.833 79.008 C 72.763 79.738,72.856 80.486,73.039 80.669 C 73.222 80.852,73.306 80.307,73.225 79.458 L 73.077 77.914 75.772 77.797 L 78.466 77.679 78.466 76.106 L 78.466 74.533 75.910 74.500 L 73.353 74.467 75.811 74.617 M96.086 76.303 C 96.086 77.493,96.160 77.979,96.250 77.384 C 96.340 76.790,96.340 75.816,96.250 75.221 C 96.160 74.626,96.086 75.113,96.086 76.303 M230.115 77.195 C 228.994 78.575,228.950 78.692,229.856 77.876 C 230.797 77.029,231.914 75.502,231.577 75.523 C 231.516 75.527,230.857 76.279,230.115 77.195 M64.411 76.994 L 62.943 78.000 63.786 79.413 C 65.070 81.565,65.565 81.868,64.371 79.771 C 63.383 78.037,63.365 77.916,64.057 77.696 C 64.462 77.568,65.109 77.113,65.496 76.686 C 66.384 75.705,66.229 75.749,64.411 76.994 M57.952 81.219 C 57.953 82.950,58.023 83.609,58.106 82.684 C 58.189 81.759,58.188 80.343,58.103 79.537 C 58.018 78.732,57.951 79.489,57.952 81.219 M90.342 79.658 C 89.735 80.192,89.394 80.629,89.585 80.629 C 89.776 80.629,90.347 80.187,90.855 79.646 C 92.031 78.395,91.771 78.401,90.342 79.658 M95.380 79.446 C 95.233 79.909,94.559 80.940,93.883 81.737 C 92.730 83.097,92.722 83.125,93.759 82.203 C 94.912 81.176,96.164 79.121,95.837 78.793 C 95.732 78.689,95.527 78.982,95.380 79.446 M4.434 81.809 C 4.434 82.783,4.510 83.181,4.604 82.694 C 4.698 82.207,4.698 81.411,4.604 80.924 C 4.510 80.438,4.434 80.836,4.434 81.809 M258.800 80.752 C 258.800 80.820,259.376 81.395,260.079 82.031 L 261.357 83.186 260.202 81.908 C 259.125 80.716,258.800 80.449,258.800 80.752 M220.052 84.028 C 218.045 85.358,217.338 86.060,218.905 85.166 C 220.285 84.379,222.125 83.011,221.822 82.998 C 221.710 82.993,220.913 83.456,220.052 84.028 M212.389 88.943 C 210.567 90.188,209.311 91.268,210.423 90.635 C 212.439 89.486,214.862 87.645,214.258 87.721 C 214.204 87.728,213.363 88.278,212.389 88.943 M205.723 93.236 C 203.541 94.714,203.186 95.077,204.720 94.261 C 205.936 93.614,208.019 92.054,207.670 92.051 C 207.561 92.050,206.685 92.583,205.723 93.236 M6.348 93.609 C 6.348 93.933,6.500 94.553,6.686 94.985 C 6.899 95.481,7.024 95.554,7.024 95.182 C 7.024 94.857,6.872 94.238,6.686 93.805 C 6.473 93.309,6.348 93.237,6.348 93.609 M172.861 97.932 C 172.212 98.108,171.000 98.369,170.166 98.512 C 169.333 98.655,168.729 98.851,168.825 98.946 C 168.920 99.041,170.664 98.781,172.700 98.366 C 174.736 97.952,175.870 97.613,175.221 97.613 C 174.572 97.613,173.510 97.756,172.861 97.932 M9.868 104.031 C 9.868 104.248,10.295 105.221,10.816 106.195 C 11.337 107.168,11.764 107.788,11.764 107.571 C 11.764 107.355,11.337 106.382,10.816 105.408 C 10.295 104.435,9.868 103.815,9.868 104.031 M149.257 106.245 C 147.369 107.253,146.029 108.161,146.430 108.161 C 146.590 108.161,147.423 107.719,148.279 107.178 C 149.136 106.637,150.007 106.195,150.215 106.195 C 150.423 106.195,150.702 106.018,150.836 105.801 C 151.173 105.256,151.039 105.293,149.257 106.245 M141.396 111.160 C 140.689 111.762,140.544 112.001,141.035 111.757 C 141.756 111.399,143.109 110.105,142.723 110.142 C 142.642 110.150,142.045 110.608,141.396 111.160 M333.303 119.764 C 333.303 124.307,333.361 126.111,333.430 123.774 C 333.500 121.437,333.500 117.720,333.430 115.515 C 333.360 113.309,333.303 115.221,333.303 119.764 M345.889 119.764 C 345.890 124.307,345.947 126.111,346.016 123.774 C 346.086 121.437,346.086 117.720,346.016 115.515 C 345.946 113.309,345.889 115.221,345.889 119.764 M330.876 113.471 C 330.880 114.336,330.961 114.644,331.055 114.155 C 331.149 113.665,331.145 112.957,331.047 112.581 C 330.949 112.205,330.872 112.606,330.876 113.471 M360.441 119.961 C 360.441 124.395,360.499 126.209,360.569 123.992 C 360.639 121.775,360.639 118.147,360.569 115.929 C 360.499 113.712,360.441 115.526,360.441 119.961 M136.607 115.143 C 135.319 116.386,134.985 116.770,135.865 115.994 C 136.744 115.218,137.974 114.200,138.598 113.732 C 139.222 113.264,139.556 112.881,139.340 112.881 C 139.124 112.881,137.894 113.899,136.607 115.143 M310.184 115.150 C 310.081 115.316,310.690 115.386,311.538 115.305 C 312.385 115.224,313.078 115.088,313.078 115.003 C 313.078 114.710,310.371 114.847,310.184 115.150 M324.976 116.618 C 324.981 117.483,325.061 117.790,325.155 117.301 C 325.249 116.812,325.246 116.104,325.147 115.728 C 325.049 115.352,324.972 115.752,324.976 116.618 M238.938 119.174 C 240.658 120.905,242.155 122.321,242.263 122.321 C 242.371 122.321,241.052 120.905,239.331 119.174 C 237.611 117.443,236.115 116.028,236.007 116.028 C 235.898 116.028,237.218 117.443,238.938 119.174 M303.245 116.355 C 303.245 116.638,302.450 116.841,301.180 116.885 L 299.115 116.956 301.038 117.106 C 302.847 117.246,304.113 116.765,303.514 116.165 C 303.366 116.017,303.245 116.103,303.245 116.355 M18.527 118.976 C 19.225 119.948,20.149 121.054,20.579 121.434 C 21.010 121.813,20.509 121.018,19.467 119.666 C 17.280 116.827,16.654 116.368,18.527 118.976 M287.611 119.764 C 287.616 120.629,287.696 120.937,287.790 120.448 C 287.885 119.958,287.881 119.251,287.783 118.874 C 287.684 118.498,287.607 118.899,287.611 119.764 M342.635 119.648 L 342.576 121.105 339.921 121.242 L 337.266 121.380 339.934 121.457 C 342.849 121.541,343.162 121.312,342.861 119.306 C 342.719 118.356,342.685 118.407,342.635 119.648 M295.051 120.222 L 294.985 121.860 297.505 121.992 C 298.892 122.065,299.943 121.991,299.842 121.829 C 299.741 121.667,298.706 121.534,297.542 121.534 L 295.426 121.534 295.272 120.059 L 295.117 118.584 295.051 120.222 M303.756 120.747 C 303.756 121.937,303.830 122.424,303.920 121.829 C 304.010 121.234,304.010 120.261,303.920 119.666 C 303.830 119.071,303.756 119.558,303.756 120.747 M311.017 119.059 C 311.507 119.153,312.215 119.149,312.591 119.051 C 312.967 118.953,312.566 118.876,311.701 118.880 C 310.836 118.884,310.528 118.965,311.017 119.059 M349.740 123.402 L 349.824 128.024 349.950 123.584 C 350.039 120.430,350.203 119.223,350.516 119.416 C 350.785 119.582,350.848 119.511,350.677 119.235 C 349.914 118.000,349.662 119.120,349.740 123.402 M129.189 122.419 L 127.237 124.484 129.302 122.532 C 130.438 121.459,131.367 120.529,131.367 120.467 C 131.367 120.174,131.002 120.500,129.189 122.419 M327.630 121.110 L 325.074 121.337 325.031 123.107 L 324.987 124.877 325.151 123.206 L 325.316 121.534 327.630 121.534 C 328.902 121.534,330.053 121.357,330.187 121.141 C 330.321 120.924,330.375 120.778,330.308 120.815 C 330.242 120.853,329.036 120.985,327.630 121.110 M24.975 126.254 C 26.696 127.984,28.192 129.400,28.300 129.400 C 28.408 129.400,27.089 127.984,25.369 126.254 C 23.648 124.523,22.152 123.107,22.044 123.107 C 21.936 123.107,23.255 124.523,24.975 126.254 M295.678 124.565 C 296.167 124.659,296.875 124.656,297.251 124.557 C 297.627 124.459,297.227 124.382,296.362 124.386 C 295.497 124.391,295.189 124.471,295.678 124.565 M330.876 126.450 C 330.880 127.316,330.961 127.623,331.055 127.134 C 331.149 126.645,331.145 125.937,331.047 125.561 C 330.949 125.185,330.872 125.585,330.876 126.450 M125.600 126.745 C 124.611 127.852,122.997 130.187,123.220 130.187 C 123.312 130.187,124.115 129.213,125.005 128.024 C 126.701 125.756,126.936 125.250,125.600 126.745 M295.285 128.105 C 295.774 128.199,296.482 128.196,296.858 128.097 C 297.234 127.999,296.834 127.922,295.969 127.926 C 295.103 127.930,294.796 128.011,295.285 128.105 M32.786 132.850 C 33.097 133.354,35.398 135.057,35.398 134.783 C 35.398 134.686,34.748 134.111,33.954 133.505 C 33.160 132.900,32.635 132.605,32.786 132.850 M120.603 134.112 C 120.033 134.972,119.567 135.808,119.567 135.969 C 119.567 136.130,119.806 135.912,120.097 135.486 C 121.378 133.609,122.004 132.547,121.828 132.547 C 121.724 132.547,121.172 133.251,120.603 134.112 M38.348 136.673 C 39.227 137.403,41.719 138.750,41.101 138.161 C 40.885 137.955,40.000 137.388,39.135 136.902 C 38.269 136.416,37.915 136.313,38.348 136.673 M115.305 144.560 C 114.646 146.006,114.772 146.315,115.484 145.000 C 115.817 144.386,116.015 143.810,115.926 143.720 C 115.836 143.630,115.556 144.008,115.305 144.560 M62.635 145.797 C 63.014 145.896,63.633 145.896,64.012 145.797 C 64.390 145.698,64.081 145.617,63.324 145.617 C 62.566 145.617,62.257 145.698,62.635 145.797 M66.273 146.319 C 67.848 146.661,71.073 146.835,70.764 146.561 C 70.674 146.481,69.272 146.316,67.650 146.196 C 65.463 146.033,65.107 146.065,66.273 146.319 M111.488 156.047 C 111.351 156.858,111.158 157.876,111.058 158.309 C 110.918 158.918,110.958 158.962,111.236 158.505 C 111.638 157.847,112.207 154.572,111.920 154.572 C 111.819 154.572,111.625 155.236,111.488 156.047 M68.658 158.923 C 68.506 160.466,68.463 161.810,68.563 161.910 C 68.663 162.010,68.872 160.832,69.027 159.292 C 69.181 157.752,69.224 156.408,69.121 156.305 C 69.018 156.203,68.810 157.381,68.658 158.923 M110.378 161.116 C 110.239 162.130,110.201 163.036,110.294 163.129 C 110.386 163.221,110.585 162.476,110.736 161.473 C 110.886 160.470,110.924 159.564,110.820 159.460 C 110.716 159.356,110.517 160.101,110.378 161.116 M261.034 162.242 C 261.159 163.324,261.327 164.282,261.407 164.372 C 261.684 164.682,261.475 162.241,261.141 161.259 C 260.916 160.595,260.881 160.916,261.034 162.242 M67.845 170.009 C 67.690 172.901,67.637 175.611,67.726 176.031 C 67.816 176.451,68.024 174.166,68.188 170.953 C 68.353 167.740,68.406 165.031,68.307 164.931 C 68.208 164.832,68.000 167.117,67.845 170.009 M261.713 172.468 C 261.713 175.929,261.773 177.292,261.847 175.498 C 261.920 173.703,261.919 170.871,261.846 169.205 C 261.772 167.538,261.712 169.007,261.713 172.468 M374.041 169.715 C 372.430 171.337,371.200 172.665,371.308 172.665 C 371.416 172.665,372.823 171.337,374.435 169.715 C 376.046 168.092,377.276 166.765,377.168 166.765 C 377.060 166.765,375.653 168.092,374.041 169.715 M109.448 168.732 C 109.448 169.705,109.525 170.103,109.619 169.617 C 109.713 169.130,109.713 168.333,109.619 167.847 C 109.525 167.360,109.448 167.758,109.448 168.732 M79.253 172.459 C 76.987 173.527,77.027 173.783,79.303 172.781 C 80.141 172.412,81.976 171.997,83.382 171.859 L 85.939 171.609 83.579 171.571 C 81.860 171.543,80.685 171.785,79.253 172.459 M87.316 172.468 C 89.111 173.160,89.818 173.149,88.299 172.454 C 87.650 172.157,86.853 171.919,86.529 171.926 C 86.205 171.932,86.559 172.176,87.316 172.468 M71.976 177.024 L 70.206 178.628 72.075 177.172 C 73.712 175.896,74.198 175.415,73.845 175.419 C 73.791 175.420,72.950 176.142,71.976 177.024 M94.985 175.726 C 95.529 176.240,100.192 178.309,99.705 177.821 C 99.489 177.604,98.250 176.960,96.952 176.391 C 95.654 175.821,94.769 175.522,94.985 175.726 M68.043 178.564 C 68.043 179.430,68.181 180.138,68.349 180.138 C 68.517 180.138,68.587 179.430,68.504 178.564 C 68.421 177.699,68.284 176.991,68.199 176.991 C 68.113 176.991,68.043 177.699,68.043 178.564 M109.440 178.368 C 109.445 179.233,109.525 179.541,109.619 179.051 C 109.713 178.562,109.710 177.854,109.611 177.478 C 109.513 177.102,109.436 177.502,109.440 178.368 M103.048 179.556 C 103.048 179.763,105.027 180.799,106.479 181.351 C 107.071 181.576,107.435 181.641,107.289 181.495 C 106.914 181.119,103.048 179.352,103.048 179.556 M261.017 182.748 C 260.878 183.762,260.840 184.668,260.933 184.761 C 261.025 184.854,261.224 184.109,261.375 183.105 C 261.525 182.102,261.563 181.196,261.459 181.092 C 261.355 180.988,261.156 181.733,261.017 182.748 M80.629 181.941 C 79.432 182.431,79.406 182.467,80.433 182.215 C 81.082 182.056,82.438 181.922,83.447 181.919 C 84.455 181.915,85.075 181.781,84.823 181.621 C 84.114 181.169,82.147 181.320,80.629 181.941 M76.805 185.349 C 76.085 186.667,75.286 219.466,75.991 218.759 C 76.144 218.606,76.321 211.314,76.384 202.554 C 76.488 188.174,76.567 186.503,77.198 185.349 C 77.582 184.646,77.808 184.071,77.700 184.071 C 77.591 184.071,77.189 184.646,76.805 185.349 M90.069 184.265 C 90.069 184.529,94.837 186.907,95.012 186.731 C 95.092 186.652,94.012 186.023,92.613 185.333 C 91.214 184.643,90.069 184.162,90.069 184.265 M101.135 189.761 C 101.465 190.092,104.228 191.166,104.228 190.964 C 104.228 190.856,103.587 190.500,102.803 190.172 C 101.352 189.566,100.804 189.431,101.135 189.761 M317.109 190.242 C 317.488 190.341,318.107 190.341,318.486 190.242 C 318.864 190.143,318.555 190.062,317.797 190.062 C 317.040 190.062,316.731 190.143,317.109 190.242 M330.088 190.242 C 330.467 190.341,331.087 190.341,331.465 190.242 C 331.844 190.143,331.534 190.062,330.777 190.062 C 330.020 190.062,329.710 190.143,330.088 190.242 M110.161 194.052 C 110.563 194.416,113.668 195.866,113.668 195.690 C 113.668 195.466,110.699 193.904,110.275 193.904 C 110.122 193.904,110.070 193.970,110.161 194.052 M119.961 198.810 C 119.961 199.040,122.162 200.197,122.596 200.195 C 122.769 200.194,122.331 199.840,121.623 199.409 C 120.306 198.606,119.961 198.481,119.961 198.810 M251.819 199.288 C 252.198 199.387,252.817 199.387,253.196 199.288 C 253.574 199.189,253.265 199.108,252.507 199.108 C 251.750 199.108,251.441 199.189,251.819 199.288 M300.052 201.291 C 299.922 202.072,299.980 202.439,300.198 202.221 C 300.396 202.023,300.492 201.442,300.412 200.930 C 300.288 200.143,300.233 200.198,300.052 201.291 M128.424 203.418 C 129.069 204.175,129.653 204.750,129.722 204.697 C 129.979 204.498,128.862 203.049,128.070 202.554 C 127.473 202.181,127.569 202.416,128.424 203.418 M130.687 208.063 C 130.687 209.036,130.764 209.435,130.858 208.948 C 130.951 208.461,130.951 207.665,130.858 207.178 C 130.764 206.691,130.687 207.089,130.687 208.063 M129.006 212.488 C 128.427 213.279,128.332 213.553,128.757 213.208 C 129.401 212.685,130.377 211.209,130.078 211.209 C 130.003 211.209,129.520 211.785,129.006 212.488 M247.644 213.766 C 248.057 215.637,248.621 216.761,248.334 215.143 C 248.200 214.385,247.932 213.500,247.737 213.176 C 247.506 212.790,247.474 212.995,247.644 213.766 M124.328 218.484 C 125.026 219.456,125.957 220.563,126.396 220.942 C 126.835 221.322,126.337 220.526,125.290 219.174 C 123.088 216.333,122.459 215.882,124.328 218.484 M248.630 217.109 C 248.630 217.434,248.782 218.053,248.968 218.486 C 249.181 218.982,249.306 219.054,249.306 218.682 C 249.306 218.358,249.153 217.738,248.968 217.306 C 248.754 216.810,248.630 216.737,248.630 217.109 M129.990 224.920 C 131.721 226.713,134.022 228.907,135.103 229.795 C 137.444 231.717,137.222 231.489,131.367 225.943 C 127.581 222.357,127.356 222.190,129.990 224.920 M236.971 229.180 C 235.890 230.174,235.536 230.626,236.185 230.184 C 237.290 229.430,239.473 227.314,239.105 227.353 C 239.013 227.363,238.053 228.185,236.971 229.180 M252.562 231.105 C 252.794 231.952,253.074 232.734,253.184 232.842 C 253.531 233.180,252.836 230.305,252.480 229.925 C 252.294 229.727,252.331 230.258,252.562 231.105 M242.717 232.055 C 242.679 232.840,244.117 238.348,244.446 238.678 C 244.720 238.952,244.640 238.583,243.478 234.218 C 243.075 232.704,242.733 231.731,242.717 232.055 M231.465 233.481 C 230.758 234.083,230.613 234.322,231.104 234.078 C 231.825 233.720,233.177 232.425,232.792 232.463 C 232.711 232.470,232.114 232.929,231.465 233.481 M139.821 233.566 C 140.250 234.073,140.957 234.670,141.392 234.893 C 142.227 235.321,142.106 235.189,140.219 233.622 C 139.083 232.679,139.069 232.677,139.821 233.566 M289.676 237.413 L 287.709 239.214 289.774 237.565 C 291.562 236.136,292.128 235.571,291.740 235.603 C 291.686 235.607,290.757 236.422,289.676 237.413 M76.303 237.427 C 76.303 237.642,76.790 238.247,77.384 238.771 L 78.466 239.725 77.483 238.545 C 76.942 237.896,76.455 237.291,76.401 237.201 C 76.347 237.111,76.303 237.213,76.303 237.427 M145.723 237.769 C 146.155 238.120,147.040 238.669,147.689 238.987 C 148.793 239.529,148.818 239.525,148.083 238.927 C 147.650 238.576,146.765 238.028,146.116 237.709 C 145.013 237.168,144.987 237.172,145.723 237.769 M89.545 241.501 C 89.930 242.153,90.657 243.171,91.160 243.762 C 91.663 244.354,91.421 243.820,90.623 242.576 C 89.110 240.219,88.326 239.437,89.545 241.501 M216.323 242.478 C 214.916 243.214,213.904 243.825,214.072 243.835 C 214.490 243.861,219.076 241.531,219.076 241.292 C 219.076 241.028,219.168 240.988,216.323 242.478 M152.606 241.688 C 152.606 241.955,155.800 243.544,155.978 243.366 C 156.061 243.284,155.336 242.831,154.367 242.361 C 153.398 241.890,152.606 241.587,152.606 241.688 M204.523 247.020 C 202.468 247.630,201.041 248.140,201.352 248.155 C 202.203 248.194,207.812 246.583,208.240 246.176 C 208.445 245.981,208.534 245.842,208.437 245.867 C 208.339 245.892,206.578 246.411,204.523 247.020 M257.074 247.001 C 257.208 247.758,257.477 248.643,257.671 248.968 C 258.090 249.666,257.687 247.627,257.167 246.411 C 256.940 245.880,256.909 246.072,257.074 247.001 M93.558 247.300 C 93.762 247.681,94.332 248.345,94.825 248.775 C 95.558 249.416,95.521 249.291,94.618 248.083 C 93.451 246.522,92.940 246.144,93.558 247.300 M166.372 247.362 C 167.561 247.784,168.889 248.125,169.322 248.120 C 169.754 248.115,169.223 247.848,168.142 247.526 C 165.070 246.614,163.977 246.512,166.372 247.362 M247.001 247.823 C 247.001 248.369,248.962 254.990,249.187 255.201 C 249.336 255.342,249.356 255.103,249.230 254.671 C 249.104 254.238,248.644 252.576,248.207 250.976 C 247.542 248.541,247.001 247.126,247.001 247.823 M96.755 251.131 C 97.489 251.888,98.178 252.507,98.286 252.507 C 98.394 252.507,97.882 251.888,97.148 251.131 C 96.415 250.374,95.726 249.754,95.618 249.754 C 95.509 249.754,96.021 250.374,96.755 251.131 M180.629 250.036 C 181.224 250.126,182.198 250.126,182.793 250.036 C 183.387 249.946,182.901 249.872,181.711 249.872 C 180.521 249.872,180.034 249.946,180.629 250.036 M188.501 250.036 C 189.099 250.127,189.984 250.124,190.468 250.031 C 190.951 249.938,190.462 249.864,189.381 249.867 C 188.299 249.870,187.903 249.946,188.501 250.036 M98.328 253.024 C 98.328 253.091,98.904 253.667,99.607 254.302 L 100.885 255.457 99.730 254.179 C 98.653 252.987,98.328 252.720,98.328 253.024 M103.683 258.516 C 103.818 258.901,104.305 259.409,104.766 259.646 C 105.484 260.015,105.522 259.999,105.033 259.537 C 104.718 259.240,104.231 258.732,103.950 258.407 C 103.506 257.893,103.471 257.907,103.683 258.516 M252.507 260.964 C 253.241 261.721,253.930 262.340,254.038 262.340 C 254.146 262.340,253.635 261.721,252.901 260.964 C 252.167 260.206,251.478 259.587,251.370 259.587 C 251.262 259.587,251.774 260.206,252.507 260.964 M105.443 260.472 C 105.534 260.526,106.227 261.101,106.983 261.750 L 108.358 262.930 107.203 261.652 C 106.567 260.949,105.874 260.374,105.662 260.374 C 105.450 260.374,105.352 260.418,105.443 260.472 M109.341 263.668 C 109.882 264.278,110.855 265.142,111.504 265.589 C 112.907 266.554,112.530 266.140,110.128 264.078 C 108.952 263.069,108.688 262.931,109.341 263.668 M256.047 263.668 C 256.047 263.760,256.677 264.207,257.447 264.662 C 258.297 265.163,258.736 265.665,258.566 265.941 C 258.388 266.229,258.459 266.288,258.759 266.102 C 259.126 265.875,259.124 265.680,258.750 265.229 C 258.260 264.639,256.047 263.361,256.047 263.668 M113.388 266.948 C 114.025 267.586,113.949 267.743,111.997 269.800 L 109.931 271.976 112.184 269.835 C 114.318 267.807,114.640 266.273,112.932 266.273 C 112.811 266.273,113.016 266.577,113.388 266.948 M255.697 268.047 C 254.747 268.802,254.128 269.417,254.320 269.414 C 254.689 269.408,257.959 266.704,257.620 266.685 C 257.512 266.679,256.647 267.292,255.697 268.047 M250.385 271.967 C 248.056 273.623,247.570 274.108,249.164 273.186 C 250.449 272.443,252.826 270.605,252.506 270.602 C 252.397 270.601,251.443 271.215,250.385 271.967 M108.533 273.648 L 107.178 275.123 108.653 273.767 C 110.026 272.506,110.309 272.173,110.008 272.173 C 109.943 272.173,109.279 272.837,108.533 273.648 M242.587 276.657 C 240.483 277.907,240.228 278.313,242.156 277.340 C 243.061 276.884,243.912 276.331,244.048 276.112 C 244.359 275.607,244.344 275.613,242.587 276.657 M104.228 279.056 C 103.558 280.029,103.099 280.826,103.207 280.826 C 103.315 280.826,103.952 280.029,104.621 279.056 C 105.291 278.083,105.751 277.286,105.643 277.286 C 105.534 277.286,104.898 278.083,104.228 279.056 M233.432 281.219 C 232.566 281.637,231.648 281.985,231.390 281.993 C 231.132 282.000,230.813 282.181,230.681 282.395 C 230.410 282.833,231.037 282.646,233.530 281.545 C 234.449 281.139,235.202 280.722,235.202 280.619 C 235.202 280.364,235.206 280.362,233.432 281.219 M98.898 287.946 C 98.124 289.482,97.555 290.804,97.634 290.882 C 97.712 290.960,98.430 289.703,99.229 288.088 C 100.028 286.474,100.597 285.152,100.493 285.152 C 100.390 285.152,99.672 286.409,98.898 287.946 M223.834 285.742 C 223.834 285.959,224.525 287.463,225.369 289.086 C 226.213 290.708,226.903 291.858,226.903 291.642 C 226.903 291.426,226.213 289.921,225.369 288.299 C 224.525 286.676,223.834 285.526,223.834 285.742 M94.832 297.793 C 94.376 299.145,94.015 300.438,94.031 300.666 C 94.047 300.895,94.489 299.856,95.012 298.358 C 95.535 296.861,95.895 295.568,95.813 295.485 C 95.730 295.402,95.289 296.441,94.832 297.793 M229.359 298.722 C 229.348 298.938,229.774 300.619,230.305 302.458 C 230.837 304.297,231.173 305.130,231.053 304.310 C 230.823 302.750,229.396 298.039,229.359 298.722 M102.847 311.964 C 102.732 312.264,102.690 316.045,102.753 320.365 L 102.869 328.220 102.959 320.015 L 103.048 311.811 107.276 311.988 C 109.602 312.086,111.858 312.296,112.291 312.455 L 113.078 312.744 112.291 312.234 C 111.115 311.473,103.124 311.244,102.847 311.964 M117.776 312.007 C 117.670 312.284,117.636 316.045,117.699 320.365 L 117.815 328.220 117.905 320.037 L 117.994 311.853 122.874 311.974 C 125.558 312.040,127.671 311.962,127.571 311.799 C 127.232 311.254,117.990 311.450,117.776 312.007 M130.367 311.996 C 130.258 312.279,130.222 316.045,130.285 320.365 L 130.401 328.220 130.491 320.059 L 130.580 311.898 135.671 311.898 L 140.761 311.898 140.921 313.474 L 141.080 315.050 141.042 313.376 L 141.003 311.701 135.784 311.591 C 131.769 311.507,130.519 311.600,130.367 311.996 M147.593 311.996 C 147.085 312.638,145.453 317.069,145.652 317.267 C 145.736 317.352,146.243 316.222,146.778 314.757 L 147.752 312.094 149.950 311.977 C 151.898 311.874,152.178 311.955,152.413 312.695 C 152.558 313.155,152.764 313.444,152.870 313.338 C 152.976 313.232,152.865 312.776,152.624 312.325 C 152.110 311.365,148.290 311.115,147.593 311.996 M163.815 312.248 C 162.950 312.647,161.800 313.484,161.260 314.107 L 160.278 315.241 161.457 314.180 C 165.130 310.874,171.272 311.286,173.743 315.004 C 174.978 316.862,174.918 316.954,172.370 317.113 L 170.108 317.255 172.566 317.330 C 175.204 317.410,175.373 317.248,174.472 315.516 C 172.647 312.009,167.652 310.477,163.815 312.248 M176.676 311.976 C 176.417 312.236,176.230 313.077,176.260 313.845 L 176.316 315.241 176.555 313.668 L 176.794 312.094 182.952 312.094 C 186.339 312.094,189.027 311.962,188.927 311.799 C 188.607 311.284,177.204 311.449,176.676 311.976 M195.674 312.118 C 195.025 312.436,194.848 312.580,195.280 312.439 C 197.129 311.834,200.449 311.828,201.881 312.427 C 202.685 312.763,203.343 312.949,203.343 312.841 C 203.343 311.691,197.641 311.154,195.674 312.118 M209.145 311.725 C 208.982 311.892,208.888 315.672,208.936 320.125 L 209.022 328.220 209.231 320.157 L 209.440 312.094 212.554 311.978 C 214.267 311.914,216.453 312.030,217.411 312.234 C 218.665 312.501,219.035 312.486,218.728 312.179 C 218.232 311.683,209.583 311.274,209.145 311.725 M232.146 312.684 C 232.146 313.441,232.227 313.751,232.326 313.373 C 232.425 312.994,232.425 312.375,232.326 311.996 C 232.227 311.618,232.146 311.927,232.146 312.684 M91.733 313.471 C 91.733 314.228,91.814 314.538,91.913 314.159 C 92.012 313.781,92.012 313.161,91.913 312.783 C 91.814 312.404,91.733 312.714,91.733 313.471 M220.289 313.714 C 220.812 314.389,221.318 314.870,221.415 314.784 C 221.511 314.698,221.084 314.146,220.465 313.557 L 219.340 312.488 220.289 313.714 M191.362 315.556 C 191.036 316.054,190.674 317.072,190.558 317.818 C 190.369 319.031,190.406 318.997,190.908 317.490 C 191.216 316.564,191.684 315.546,191.947 315.228 C 192.211 314.911,192.321 314.651,192.191 314.651 C 192.061 314.651,191.688 315.058,191.362 315.556 M106.746 315.593 C 106.630 315.895,106.606 316.824,106.692 317.658 C 106.843 319.116,106.852 319.103,106.915 317.328 L 106.981 315.483 108.653 315.332 L 110.324 315.182 108.641 315.113 C 107.513 315.067,106.887 315.225,106.746 315.593 M134.189 316.716 L 134.120 318.584 136.676 318.584 L 139.233 318.584 139.233 319.942 L 139.233 321.300 136.775 321.417 L 134.317 321.534 134.293 324.680 L 134.269 327.827 134.407 324.797 L 134.544 321.767 136.987 321.651 L 139.430 321.534 139.430 319.961 L 139.430 318.387 136.993 318.271 L 134.557 318.154 134.407 316.501 L 134.257 314.848 134.189 316.716 M180.692 321.534 C 180.691 325.211,180.751 326.769,180.823 324.995 C 180.896 323.221,180.896 320.212,180.824 318.308 C 180.752 316.405,180.692 317.856,180.692 321.534 M213.176 315.350 C 213.176 315.518,213.884 315.587,214.749 315.505 C 215.615 315.422,216.323 315.285,216.323 315.200 C 216.323 315.114,215.615 315.044,214.749 315.044 C 213.884 315.044,213.176 315.182,213.176 315.350 M110.893 316.100 C 111.184 316.704,111.184 317.289,110.890 318.067 C 110.660 318.676,110.640 318.997,110.846 318.781 C 111.593 317.995,111.701 316.769,111.091 316.007 C 110.498 315.266,110.491 315.269,110.893 316.100 M115.302 316.814 C 115.267 317.679,114.863 319.002,114.405 319.753 C 113.898 320.585,113.805 320.926,114.168 320.625 C 115.092 319.858,115.707 318.024,115.529 316.566 C 115.372 315.284,115.365 315.292,115.302 316.814 M159.667 316.258 C 159.426 316.709,159.161 318.081,159.079 319.306 L 158.930 321.534 159.293 319.273 C 159.493 318.030,159.846 316.658,160.078 316.225 C 160.310 315.792,160.411 315.438,160.303 315.438 C 160.195 315.438,159.909 315.807,159.667 316.258 M195.656 316.403 C 195.125 316.934,194.696 317.598,194.702 317.878 C 194.709 318.158,194.909 318.033,195.147 317.601 C 195.385 317.168,195.955 316.508,196.413 316.135 C 196.872 315.761,197.106 315.451,196.934 315.446 C 196.762 315.441,196.187 315.872,195.656 316.403 M201.248 316.380 C 202.134 317.142,202.391 317.763,202.589 319.625 L 202.834 321.927 202.892 319.893 C 202.949 317.886,201.653 315.438,200.533 315.438 C 200.324 315.438,200.646 315.862,201.248 316.380 M217.122 316.097 C 217.550 316.783,217.561 317.172,217.179 318.063 C 216.740 319.089,216.749 319.115,217.299 318.411 C 218.077 317.416,218.056 316.453,217.243 315.781 C 216.647 315.289,216.637 315.316,217.122 316.097 M221.543 317.011 C 221.543 317.984,221.619 318.382,221.713 317.896 C 221.807 317.409,221.807 316.613,221.713 316.126 C 221.619 315.639,221.543 316.037,221.543 317.011 M149.753 316.848 C 149.339 317.262,149.386 317.889,149.811 317.627 C 150.004 317.507,150.278 317.872,150.420 318.437 C 150.561 319.001,150.766 319.375,150.875 319.266 C 150.983 319.158,150.841 318.503,150.559 317.812 C 150.277 317.121,149.914 316.687,149.753 316.848 M232.577 319.961 C 232.579 321.475,232.650 322.046,232.735 321.230 C 232.821 320.414,232.819 319.175,232.732 318.477 C 232.645 317.779,232.576 318.446,232.577 319.961 M91.356 319.764 C 91.356 320.737,91.433 321.136,91.526 320.649 C 91.620 320.162,91.620 319.366,91.526 318.879 C 91.433 318.392,91.356 318.791,91.356 319.764 M126.844 319.665 L 126.844 321.141 124.287 321.378 L 121.731 321.615 124.484 321.574 L 127.237 321.534 127.358 319.862 C 127.424 318.943,127.336 318.191,127.161 318.190 C 126.987 318.190,126.844 318.854,126.844 319.665 M163.338 319.961 C 163.341 321.042,163.417 321.438,163.507 320.840 C 163.598 320.242,163.595 319.357,163.502 318.874 C 163.409 318.390,163.335 318.879,163.338 319.961 M194.396 319.961 C 194.401 320.826,194.481 321.134,194.575 320.644 C 194.669 320.155,194.666 319.447,194.567 319.071 C 194.469 318.695,194.392 319.095,194.396 319.961 M206.982 319.961 C 206.987 320.826,207.067 321.134,207.161 320.644 C 207.255 320.155,207.252 319.447,207.153 319.071 C 207.055 318.695,206.978 319.095,206.982 319.961 M107.866 319.249 C 108.245 319.347,108.864 319.347,109.243 319.249 C 109.621 319.150,109.312 319.069,108.555 319.069 C 107.797 319.069,107.488 319.150,107.866 319.249 M214.061 319.249 C 214.440 319.347,215.059 319.347,215.438 319.249 C 215.816 319.150,215.506 319.069,214.749 319.069 C 213.992 319.069,213.682 319.150,214.061 319.249 M151.088 320.157 C 151.088 320.482,151.240 321.101,151.426 321.534 C 151.639 322.030,151.764 322.102,151.764 321.731 C 151.764 321.406,151.612 320.787,151.426 320.354 C 151.213 319.858,151.088 319.785,151.088 320.157 M219.583 320.686 C 218.147 321.649,218.036 322.050,218.901 323.130 C 219.483 323.857,219.491 323.849,219.062 322.969 C 218.661 322.146,218.757 321.920,219.925 320.920 C 221.474 319.595,221.342 319.505,219.583 320.686 M143.997 321.381 C 143.754 322.076,143.625 322.714,143.709 322.798 C 143.793 322.882,144.060 322.382,144.302 321.687 C 144.545 320.992,144.674 320.354,144.590 320.270 C 144.506 320.186,144.239 320.686,143.997 321.381 M155.439 320.944 C 156.635 324.372,157.465 326.442,157.594 326.313 C 157.776 326.131,155.849 320.895,155.482 320.572 C 155.345 320.452,155.326 320.619,155.439 320.944 M112.408 321.358 C 111.778 321.726,112.784 324.484,113.549 324.484 C 113.657 324.484,113.397 323.893,112.971 323.171 C 112.265 321.974,112.253 321.821,112.834 321.424 C 113.631 320.881,113.311 320.832,112.408 321.358 M190.559 322.110 C 190.809 323.714,191.996 325.561,193.453 326.609 C 194.162 327.119,194.016 326.855,192.994 325.781 C 192.169 324.913,191.236 323.425,190.921 322.475 C 190.419 320.965,190.374 320.919,190.559 322.110 M106.753 322.261 C 106.641 322.553,106.612 324.013,106.688 325.506 L 106.827 328.220 106.904 325.172 C 106.985 321.979,107.128 321.683,108.041 322.812 C 108.544 323.433,108.556 323.414,108.169 322.616 C 107.687 321.621,107.059 321.464,106.753 322.261 M174.236 324.094 C 173.961 324.759,173.097 325.845,172.315 326.507 C 171.534 327.170,171.249 327.533,171.681 327.314 C 173.075 326.609,175.400 323.549,174.913 323.061 C 174.816 322.964,174.512 323.429,174.236 324.094 M159.685 323.544 C 159.685 323.773,160.261 324.574,160.964 325.326 C 161.667 326.078,161.960 326.329,161.615 325.883 C 161.270 325.438,160.695 324.636,160.337 324.101 C 159.978 323.566,159.685 323.316,159.685 323.544 M109.538 325.664 C 110.086 326.745,110.623 327.630,110.731 327.630 C 110.839 327.630,110.479 326.745,109.931 325.664 C 109.383 324.582,108.846 323.697,108.738 323.697 C 108.630 323.697,108.990 324.582,109.538 325.664 M215.462 325.074 C 215.901 325.939,216.551 327.001,216.906 327.434 C 217.262 327.866,217.069 327.335,216.479 326.254 C 215.159 323.833,214.363 322.910,215.462 325.074 M198.820 324.484 C 197.732 324.761,197.716 324.787,198.623 324.825 C 199.164 324.847,199.872 324.693,200.197 324.484 C 200.866 324.051,200.520 324.051,198.820 324.484 M204.364 325.757 C 202.912 327.271,203.076 327.462,204.658 326.100 C 205.283 325.562,206.332 324.030,206.012 324.123 C 205.950 324.141,205.209 324.877,204.364 325.757 M220.517 326.035 C 221.118 327.105,221.675 327.915,221.754 327.836 C 221.924 327.666,219.873 324.090,219.606 324.090 C 219.506 324.090,219.916 324.966,220.517 326.035 M122.714 324.725 C 125.067 325.021,127.827 325.050,127.827 324.779 C 127.827 324.617,126.455 324.510,124.779 324.543 C 123.102 324.575,122.173 324.657,122.714 324.725 M142.223 326.315 C 141.871 327.346,141.739 328.020,141.928 327.812 C 142.365 327.332,143.221 324.800,143.016 324.595 C 142.931 324.511,142.574 325.285,142.223 326.315 M91.733 326.057 C 91.733 326.814,91.814 327.124,91.913 326.745 C 92.012 326.367,92.012 325.747,91.913 325.369 C 91.814 324.990,91.733 325.300,91.733 326.057 M146.349 326.514 C 145.754 328.223,146.024 328.300,146.778 326.636 C 147.118 325.885,147.259 325.270,147.090 325.270 C 146.921 325.270,146.588 325.830,146.349 326.514 M197.738 328.301 C 198.225 328.395,199.022 328.395,199.508 328.301 C 199.995 328.207,199.597 328.131,198.623 328.131 C 197.650 328.131,197.252 328.207,197.738 328.301 M230.185 337.327 C 229.700 339.205,229.369 340.808,229.451 340.890 C 229.664 341.103,231.344 334.740,231.194 334.289 C 231.125 334.082,230.671 335.449,230.185 337.327 M94.031 338.862 C 93.990 339.451,95.631 344.225,95.813 344.043 C 95.895 343.960,95.535 342.667,95.012 341.170 C 94.489 339.672,94.047 338.633,94.031 338.862 M225.836 349.478 C 224.651 351.917,224.783 352.258,226.004 349.912 C 226.550 348.864,226.929 347.938,226.847 347.856 C 226.764 347.774,226.310 348.504,225.836 349.478 M97.542 348.618 C 97.542 349.045,99.889 353.589,100.110 353.589 C 100.218 353.589,99.752 352.483,99.074 351.131 C 97.790 348.568,97.542 348.162,97.542 348.618 M223.992 353.196 C 223.657 353.845,223.470 354.376,223.579 354.376 C 223.687 354.376,224.050 353.845,224.385 353.196 C 224.721 352.547,224.907 352.016,224.799 352.016 C 224.691 352.016,224.328 352.547,223.992 353.196 M221.416 357.614 C 220.719 358.747,220.401 359.465,220.707 359.210 C 221.313 358.708,223.179 355.556,222.871 355.556 C 222.768 355.556,222.113 356.482,221.416 357.614 M104.228 360.472 C 104.898 361.445,105.534 362.242,105.643 362.242 C 105.751 362.242,105.291 361.445,104.621 360.472 C 103.952 359.499,103.315 358.702,103.207 358.702 C 103.099 358.702,103.558 359.499,104.228 360.472 M107.326 364.544 C 108.205 365.593,109.235 366.699,109.617 367.002 C 109.998 367.304,109.357 366.445,108.193 365.093 C 107.029 363.741,105.998 362.635,105.902 362.635 C 105.807 362.635,106.447 363.494,107.326 364.544 M216.122 364.897 C 215.065 366.141,214.608 366.804,215.108 366.372 C 216.056 365.550,218.469 362.635,218.200 362.635 C 218.115 362.635,217.180 363.653,216.122 364.897 M211.785 369.813 L 209.833 371.878 211.898 369.926 C 213.033 368.853,213.963 367.924,213.963 367.861 C 213.963 367.568,213.598 367.894,211.785 369.813 M111.701 369.518 C 112.435 370.275,113.124 370.895,113.232 370.895 C 113.340 370.895,112.828 370.275,112.094 369.518 C 111.361 368.761,110.672 368.142,110.563 368.142 C 110.455 368.142,110.967 368.761,111.701 369.518 M115.634 373.058 C 116.368 373.815,117.057 374.435,117.165 374.435 C 117.273 374.435,116.761 373.815,116.028 373.058 C 115.294 372.301,114.605 371.681,114.497 371.681 C 114.388 371.681,114.900 372.301,115.634 373.058 M207.842 373.353 L 206.686 374.631 207.965 373.476 C 208.668 372.841,209.243 372.265,209.243 372.198 C 209.243 371.894,208.918 372.161,207.842 373.353 M119.567 376.151 C 119.567 376.259,120.098 376.726,120.747 377.188 C 121.396 377.650,121.927 377.940,121.927 377.831 C 121.927 377.723,121.396 377.257,120.747 376.794 C 120.098 376.332,119.567 376.043,119.567 376.151 M202.799 377.186 C 200.930 378.600,200.535 379.004,201.573 378.440 C 202.475 377.951,204.819 376.038,204.523 376.033 C 204.415 376.031,203.639 376.550,202.799 377.186 M126.647 380.913 C 126.647 381.021,127.709 381.646,129.007 382.301 C 130.305 382.956,131.367 383.404,131.367 383.295 C 131.367 383.187,130.305 382.563,129.007 381.908 C 127.709 381.252,126.647 380.805,126.647 380.913 M195.772 381.541 C 194.961 381.969,194.297 382.408,194.297 382.515 C 194.297 382.622,195.005 382.349,195.870 381.908 C 196.735 381.466,197.443 381.020,197.443 380.916 C 197.443 380.659,197.441 380.660,195.772 381.541 M184.661 386.487 C 183.363 387.008,182.832 387.328,183.481 387.198 C 184.703 386.952,188.109 385.504,187.414 385.526 C 187.198 385.533,185.959 385.965,184.661 386.487 M154.479 390.052 C 154.968 390.146,155.676 390.143,156.052 390.044 C 156.428 389.946,156.028 389.869,155.162 389.873 C 154.297 389.877,153.989 389.958,154.479 390.052 M168.240 390.051 C 168.727 390.145,169.523 390.145,170.010 390.051 C 170.497 389.958,170.098 389.881,169.125 389.881 C 168.151 389.881,167.753 389.958,168.240 390.051 M159.390 390.459 C 160.851 390.534,163.240 390.534,164.700 390.459 C 166.160 390.383,164.966 390.321,162.045 390.321 C 159.125 390.321,157.930 390.383,159.390 390.459 " stroke="none" fill="#c9a9d3" fill-rule="evenodd"/></g></svg>