<svg xmlns="http://www.w3.org/2000/svg" version="1.1" viewBox="0 0 180 80" width="180" height="80">
    <!-- svg-source:excalidraw -->

    <defs>
        <style class="style-fonts">
            @font-face {
            font-family: "Virgil";
            src: url("https://excalidraw.com/Virgil.woff2");
            }
            @font-face {
            font-family: "Cascadia";
            src: url("https://excalidraw.com/Cascadia.woff2");
            }
        </style>
    </defs>
    <g stroke-linecap="round" transform="translate(10 10) rotate(0 80 50)">
        <path d="M101.25 12.75         M101.25 12.75 C113.42 21.84, 122.94 27.08, 139.75 38.25         M101.25 12.75 C112.57 20.21, 124.24 27.51, 139.75 38.25         M139.75 38.25 C161.55 50.82, 161.61 50.45, 139.75 51.0         M139.75 38.25 C162.03 49.96, 161.33 49.09, 139.75 51.0         M139.75 51.0 C125.43 50.8, 109.77 49.59, 101.25 51.0         M139.75 51.0 C125.47 53.3, 110.32 54.26, 101.25 51.0         M101.25 51.0 C82.78 51.97, 80.38 51.36, 60.75 51.0         M101.25 51.0 C81.51 51.36, 82.91 48.93, 60.75 51.0         M60.75 51.0 C48.57 50.36, 34.65 49.5, 20.25 51.0         M60.75 51.0 C50.45 51.06, 40.2 48.94, 20.25 51.0         M20.25 51.0 C-1 50.11, 1.37 51.66, 20.25 38.25         M20.25 51.0 C-1.83 50.1, 1.04 52.35, 20.25 38.25         M20.25 38.25 C35.57 27.17, 50.78 20.17, 60.75 12.75         M20.25 38.25 C35.16 28.25, 49.48 20.81, 60.75 12.75         M60.75 12.75 C80.43 -1.79, 80.74 0.64, 101.25 12.75         M60.75 12.75 C80.19 1.02, 80.39 -2.26, 101.25 12.75" stroke="#ff0000" stroke-width="1" fill="none"/>
    </g>
</svg>